# xmcd
# Copyright (C) 1995-1998 Ti Kan
#
# Track frame offsets:
#       150
#       32744
#       53797
#       79442
#       98186
#       123094
#       152216
#       168554
#       188044
#       212756
#
# Disc length: 3269 seconds
#
# Revision: 0
# Processed by: cddbd v1.5.2PL0 Copyright (c) Steve Scherf et al.
# Submitted via: CD-Transfer v1.0
#
DISCID=830cc30a
DTITLE=Brazen - Aura, Dora
DYEAR=06
DGENRE=
TTITLE0=Aura, Dora
TTITLE1=Yesterday Was You
TTITLE2=Calling Seasons
TTITLE3=Ordinary Song
TTITLE4=Fuzzy Cloud
TTITLE5=Newborn Towns
TTITLE6=High Noon
TTITLE7=Water Proof Men
TTITLE8=Harbours Of Stone
TTITLE9=The Escapist
EXTD=
EXTT0=
EXTT1=
EXTT2=
EXTT3=
EXTT4=
EXTT5=
EXTT6=
EXTT7=
EXTT8=
EXTT9=
PLAYORDER=
